Simulation
nRows=38
nColumns=15
endheader
time  TH_x TH_y TH_z SC_y  SC_z  SC_x  AC_y  AC_z  AC_x  GH_y  GH_z  GH_yy  EL_x  PS_y
0.0  0.000000  0.000000  0.000000  -14.264224432061587  -4.486187599428282  2.095398178737292  52.91511040091951  2.0827476818031747  -19.709156430111392  35.676974142789724  16.556166918540917  -17.867472094163325  25.498359192744743  120.000000
0.02799999999999999  0.000000  0.000000  0.000000  -14.481875226544762  -4.191207196997255  1.5007742364013716  52.74063600039744  2.67824077492137  -19.021619938722917  30.348880195246135  16.25031420738805  -12.63555491021341  25.067922116104913  120.000000
0.05599999999999998  0.000000  0.000000  0.000000  -14.70248362330042  -3.9397724256996174  0.8054055055795367  52.624473567704555  3.138863765654896  -18.130239965007902  26.117442239800383  16.231512284680136  -8.430854723411782  24.752822955739497  120.000000
0.08399999999999996  0.000000  0.000000  0.000000  -14.90406347359732  -3.7799483652317836  0.08367553040904202  52.54809867813964  3.5056503284709137  -17.168753854122592  23.183872194126124  16.410351668364914  -5.459762308195664  24.52128432818027  120.000000
0.11199999999999996  0.000000  0.000000  0.000000  -15.064925837538032  -3.704882717536286  -0.6642089019908932  52.54758589793458  3.838843169380353  -16.253618305980872  21.63086395703622  16.748971077915687  -3.8179513163782226  24.35469356465359  120.000000
0.13999999999999996  0.000000  0.000000  0.000000  -15.178756096708161  -3.688943493124781  -1.456114702704009  52.61555116735893  4.211503659207515  -15.443514671972231  21.250333939465087  17.21688512159649  -3.325762759184151  24.227482047395814  120.000000
0.16799999999999993  0.000000  0.000000  0.000000  -15.263171671675547  -3.7145539873071756  -2.2655944181520793  52.69625140086231  4.667812426149394  -14.762849085391348  21.61775547504711  17.788788204790112  -3.592437199985307  24.117095530201098  120.000000
0.19599999999999992  0.000000  0.000000  0.000000  -15.343991630955822  -3.7635654109922934  -3.033875072240112  52.760749390887995  5.198369156302347  -14.216450594675806  22.34299219141841  18.453950333671486  -4.262401315034642  24.002194601763744  120.000000
0.22399999999999992  0.000000  0.000000  0.000000  -15.4237693217154  -3.82170182304309  -3.7284532725824304  52.81399031146875  5.772608204558398  -13.787565600867566  23.147680426851725  19.224589306519864  -5.089518330234034  23.879583714291698  120.000000
0.2519999999999999  0.000000  0.000000  0.000000  -15.503030425613495  -3.87780685540658  -4.331089533328988  52.87244311027076  6.360260532020685  -13.443188672942036  23.859734155933417  20.10537441414789  -5.922523633672195  23.755002909766752  120.000000
0.2799999999999999  0.000000  0.000000  0.000000  -15.584301703889283  -3.9235549881792977  -4.837989135113127  52.95649710300583  6.935752272180984  -13.157240851106108  24.396797178754344  21.1030387310341  -6.697219446889538  23.636877216539766  120.000000
0.3079999999999999  0.000000  0.000000  0.000000  -15.672744881368821  -3.952607222195034  -5.251421833002246  53.076773361025566  7.484131526895786  -12.908092590910469  24.727386088821866  22.216727995832763  -7.389235060894749  23.532401181606016  120.000000
0.33599999999999985  0.000000  0.000000  0.000000  -15.769102740246959  -3.959262935535261  -5.575062641629675  53.23740057513324  7.998620766835327  -12.683946852438869  24.858632397477805  23.441861886288052  -8.009428265392406  23.442343666032357  120.000000
0.3639999999999999  0.000000  0.000000  0.000000  -15.874701766294077  -3.938746976454204  -5.814108863939838  53.43691594727573  8.478610563727301  -12.479919490896027  24.817930537960535  24.7711259580315  -8.580947169173927  23.36305626109381  120.000000
0.39199999999999985  0.000000  0.000000  0.000000  -15.986143441919697  -3.887101406756533  -5.970969750846388  53.66867064761866  8.926204821985522  -12.294810254249006  24.636828095551447  26.191919092428016  -9.127255382709722  23.286297739406642  120.000000
0.4199999999999999  0.000000  0.000000  0.000000  -16.0998544671038  -3.802071160167093  -6.04975853326183  53.926137922784555  9.344412257132305  -12.131036336945215  24.347234421430738  27.691049368719433  -9.670207048224729  23.201830865787247  120.000000
0.44799999999999984  0.000000  0.000000  0.000000  -16.210483256110724  -3.682353929879901  -6.0517370202100205  54.201508183693115  9.735916313003061  -11.989036907228572  23.971586354588467  29.25093241389471  -10.218787104774895  23.1013058252399  120.000000
0.4759999999999998  0.000000  0.000000  0.000000  -16.313164343345893  -3.5291902179863657  -5.981174832428151  54.490239527990994  10.102216115737383  -11.870625063495552  23.52624280242413  30.85542769147097  -10.778678397435975  22.978911487249096  120.000000
0.5039999999999998  0.000000  0.000000  0.000000  -16.40343121221817  -3.3447506057373033  -5.840577063085758  54.78830051904996  10.444514178226695  -11.773180424011693  23.01875281637588  32.484797741200474  -11.344202468407763  22.834013566661408  120.000000
0.5319999999999998  0.000000  0.000000  0.000000  -16.478652372088302  -3.133264495379086  -5.636499440081594  55.094926201053106  10.763565733589346  -11.695184890462729  22.45353810701815  34.122311936835594  -11.911316466360901  22.669662625766  120.000000
0.5599999999999998  0.000000  0.000000  0.000000  -16.538184490395235  -2.898400070596818  -5.373581095920004  55.409609630698284  11.060650907343328  -11.631367440605246  21.833694650429685  35.748856979313075  -12.473479961126216  22.491929125670328  120.000000
0.5879999999999997  0.000000  0.000000  0.000000  -16.585523599048145  -2.6442215908221223  -5.059275310100542  55.73320329576952  11.338005663586161  -11.577880943363805  21.16430671476323  37.34873666361556  -13.030894079570498  22.308322804331432  120.000000
0.6159999999999998  0.000000  0.000000  0.000000  -16.626538523315727  -2.3721197729177494  -4.698565851608282  56.06635471141094  11.5986520172251  -11.529810090208024  20.454354568586812  38.906511477572586  -13.588606968452535  22.12678539092338  120.000000
0.6439999999999998  0.000000  0.000000  0.000000  -16.672749950173078  -2.082350197125061  -4.296191312025978  56.40966411090394  11.84714305497967  -11.482878141760656  19.71689651429619  40.40964789334257  -14.159091307499489  21.954659956299697  120.000000
0.6719999999999997  0.000000  0.000000  0.000000  -16.73559500162453  -1.7730020134251323  -3.855332588835036  56.76366805714083  12.088124664854412  -11.43371816526219  18.96688285762903  41.848457676606  -14.758663680199051  21.798509027007455  120.000000
0.6999999999999997  0.000000  0.000000  0.000000  -16.83033666106438  -1.4421180907166873  -3.3776869774558413  57.12882076780146  12.325812147275213  -11.378368010129996  18.22006158038752  43.214567188598664  -15.404394149143473  21.663332570382302  120.000000
0.7279999999999998  0.000000  0.000000  0.000000  -16.967744137371685  -1.088617707571156  -2.8640977052293217  57.5062158405965  12.562735544123678  -11.313579176712029  17.48856663080046  44.503104882131694  -16.110183473365918  21.552527161605493  120.000000
0.7559999999999998  0.000000  0.000000  0.000000  -17.157870423000865  -0.7120854066656641  -2.313499215068239  57.89781950919929  12.79958999111139  -11.235164661294824  16.780476134744426  45.71077523502794  -16.882532880026876  21.467391918018592  120.000000
0.7839999999999997  0.000000  0.000000  0.000000  -17.40460187528237  -0.3133336569114985  -1.7251780699017514  58.30734417411466  13.035983319163108  -11.139857074705258  16.097843678283628  46.83839684244535  -17.720218577976286  21.40663761237052  120.000000
0.8119999999999997  0.000000  0.000000  0.000000  -17.709086402762704  0.10599805077201901  -1.0980218298587727  58.73771773039772  13.270134495891924  -11.023761381968004  15.436920284397468  47.88854166237736  -18.61229685626539  21.367424607057057  120.000000
0.8399999999999997  0.000000  0.000000  0.000000  -18.06824690884103  0.5433084578982696  -0.4314236712193424  59.19277018881024  13.500229668401856  -10.88408394119155  14.790609290494167  48.86606726924563  -19.542439349992417  21.34542971279491  120.000000
0.8679999999999997  0.000000  0.000000  0.000000  -18.47820470896433  0.9958039075493377  0.2745913125014073  59.67414728863302  13.724029476522764  -10.717791952091968  14.148931917508186  49.776823491884166  -20.48933979595675  21.336761919861722  120.000000
0.8959999999999997  0.000000  0.000000  0.000000  -18.933455589248116  1.4608755504009168  1.019853597724578  60.18280137757432  13.939891292680738  -10.522936961708822  13.502448754316797  50.62643252402736  -21.431588413522427  21.338048237841775  120.000000
0.9239999999999997  0.000000  0.000000  0.000000  -19.43079150669285  1.9366256997122284  1.8036472074067469  60.7174680744883  14.146327771055613  -10.297831794277268  12.84223258284718  51.42014041138644  -22.348440344778428  21.347755487969412  120.000000
0.9519999999999996  0.000000  0.000000  0.000000  -19.96602056242494  2.4219106469556255  2.6253998889327166  61.275461266648016  14.3423854428772  -10.041410236850817  12.161401257890198  52.16174507127575  -23.22230074379743  21.3659190495186  120.000000
0.9799999999999996  0.000000  0.000000  0.000000  -20.538449717941337  2.9164726409977786  3.4848636196687117  61.85337433658181  14.527317058643908  -9.752534631823238  11.455078644870213  52.85410856314119  -24.03924613199482  21.39419774453774  120.000000
1.0079999999999996  0.000000  0.000000  0.000000  -21.145208103189027  3.4199952874159116  4.381765199710157  62.446978272138686  14.700314704614888  -9.429875959174765  10.719821240883505  53.49896304003376  -24.788993632720587  21.435647633150456  120.000000
1.0359999999999996  0.000000  0.000000  0.000000  -21.78582452196681  3.93257071718953  5.31610034765897  63.05292313925893  14.860311130577513  -9.072231601393488  9.953647835058128  54.09676716674372  -25.46565852860286  21.494148598883612  120.000000
